<svg xmlns="http://www.w3.org/2000/svg" viewBox="0 0 512 512" width="512" height="512">
  <defs>
    <linearGradient id="bg512" x1="0%" y1="0%" x2="100%" y2="100%">
      <stop offset="0%" style="stop-color:#000000"/>
      <stop offset="100%" style="stop-color:#1a1a1a"/>
    </linearGradient>
  </defs>
  <rect width="512" height="512" rx="64" fill="url(#bg512)"/>
  <g fill="#00ff41" stroke="#00ff41">
    <rect x="128" y="192" width="256" height="20" rx="10"/>
    <rect x="128" y="232" width="216" height="20" rx="10"/>
    <rect x="128" y="272" width="240" height="20" rx="10"/>
    <rect x="128" y="312" width="200" height="20" rx="10"/>
    <circle cx="416" cy="202" r="16"/>
    <circle cx="416" cy="242" r="16"/>
    <circle cx="416" cy="282" r="16"/>
    <circle cx="416" cy="322" r="16"/>
    <path d="M256 128c-24 0-44 20-44 44v20h88v-20c0-24-20-44-44-44z" fill="none" stroke="#00ff41" stroke-width="12"/>
    <rect x="192" y="192" width="128" height="88" rx="12" fill="none" stroke="#00ff41" stroke-width="12"/>
  </g>
</svg>